Coordinates
version=1
nRows=32
nColumns=22
inDegrees=yes

Units are S.I. units (second, meters, Newtons, ...)
If the header above contains a line with 'inDegrees', this indicates whether rotational values are in degrees (yes) or radians (no).

endheader
time	pelvis_tilt	pelvis_list	pelvis_rotation	pelvis_tx	pelvis_ty	pelvis_tz	hip_flexion_r	hip_adduction_r	hip_rotation_r	knee_angle_r	ankle_angle_r	subtalar_angle_r	hip_flexion_l	hip_adduction_l	hip_rotation_l	knee_angle_l	ankle_angle_l	subtalar_angle_l	lumbar_extension	lumbar_bending	lumbar_rotation
      1.24000000	     -1.34696428	      0.64875675	      1.08644435	     -0.90917109	      0.93087115	     -0.58294544	     19.81142609	     -5.57858269	     -5.91263879	    -46.62460762	      8.58697223	      1.19287469	      1.59719330	      2.16705636	    -10.83978846	    -17.51237229	     16.98842482	     -2.76611521	    -14.08719183	     -5.29717471	     -7.27215019
      1.25000000	     -1.33706439	      0.55764038	      0.89198711	     -0.90759318	      0.93057400	     -0.58284557	     20.83555758	     -5.57394227	     -5.78671029	    -48.07324553	      7.82330708	      0.98357332	      1.56155371	      2.07007117	    -10.95152031	    -17.69539000	     17.13611366	     -2.88373195	    -14.30614182	     -5.14117097	     -7.50130357
      1.26000000	     -1.35820482	      0.47513088	      0.69713134	     -0.90586780	      0.93019867	     -0.58270872	     21.82761545	     -5.60749200	     -5.78323348	    -49.27738838	      7.29867494	      0.82479692	      1.56168986	      1.97239972	    -11.11451911	    -17.90620502	     17.31575204	     -3.03981939	    -14.47156972	     -4.98999427	     -7.75399524
      1.27000000	     -1.35022943	      0.37629401	      0.46913406	     -0.90396348	      0.92991407	     -0.58244294	     22.70184314	     -5.61682269	     -5.83894741	    -50.15883591	      6.90612285	      0.73830088	      1.48156897	      1.86066934	    -11.25992357	    -18.05284683	     17.46397729	     -3.17195919	    -14.65323654	     -4.82994026	     -7.97752222
      1.28000000	     -1.35860310	      0.27398422	      0.22222857	     -0.90190156	      0.92960869	     -0.58209562	     23.51310860	     -5.63328258	     -5.98461195	    -50.71755123	      6.74864618	      0.73339740	      1.40761101	      1.73975033	    -11.44079294	    -18.20505231	     17.61882581	     -3.32475483	    -14.80032458	     -4.66873971	     -8.17527698
      1.29000000	     -1.36319691	      0.15486163	     -0.04670706	     -0.89967375	      0.92934709	     -0.58163831	     24.22914391	     -5.62332972	     -6.19079067	    -50.92058483	      6.77483879	      0.79932400	      1.29816564	      1.60005011	    -11.63338266	    -18.32438358	     17.75890454	     -3.46851207	    -14.93783865	     -4.49548774	     -8.35568739
      1.30000000	     -1.34829355	      0.03248006	     -0.33535306	     -0.89727927	      0.92914820	     -0.58108651	     24.83679743	     -5.60267164	     -6.45567714	    -50.77238749	      6.93882227	      0.88108219	      1.13551304	      1.45679277	    -11.84626839	    -18.40921534	     17.87872398	     -3.54035805	    -15.08611265	     -4.32578653	     -8.52462561
      1.31000000	     -1.37561885	     -0.12066187	     -0.65021341	     -0.89474512	      0.92891500	     -0.58041327	     25.40915950	     -5.51951613	     -6.74382725	    -50.28141857	      7.18234910	      0.99698873	      0.98725523	      1.28146249	    -12.06406622	    -18.45821850	     18.01656511	     -3.60081381	    -15.17216830	     -4.12965277	     -8.65255288
      1.32000000	     -1.42305620	     -0.29147223	     -0.97509971	     -0.89207602	      0.92867799	     -0.57964885	     25.91270653	     -5.38678260	     -7.05221614	    -49.44639027	      7.44727444	      1.14771926	      0.84759562	      1.08191363	    -12.31328884	    -18.50644767	     18.20007386	     -3.63493382	    -15.22854265	     -3.91871690	     -8.76159486
      1.33000000	     -1.46583161	     -0.49695579	     -1.31263588	     -0.88926777	      0.92845974	     -0.57876877	     26.32962316	     -5.18310972	     -7.38099466	    -48.30476677	      7.67357199	      1.34823295	      0.68139576	      0.83749287	    -12.60225841	    -18.54171538	     18.43665301	     -3.61205979	    -15.28549392	     -3.67682949	     -8.86334239
      1.34000000	     -1.51517395	     -0.71002193	     -1.66812825	     -0.88631071	      0.92823092	     -0.57778520	     26.67364728	     -4.92397573	     -7.68664508	    -46.88166309	      7.93888671	      1.53311445	      0.49257167	      0.58483540	    -12.91094172	    -18.54832270	     18.65997164	     -3.53997679	    -15.32845883	     -3.43171830	     -8.94429174
      1.35000000	     -1.56848347	     -0.93924110	     -2.03920605	     -0.88320910	      0.92798189	     -0.57668311	     26.94944415	     -4.59753742	     -7.96458966	    -45.21292953	      8.16208621	      1.71858253	      0.28291268	      0.31031176	    -13.24767803	    -18.53915672	     18.89916769	     -3.43959481	    -15.36259702	     -3.17609949	     -9.00827414
      1.36000000	     -1.61821421	     -1.17917429	     -2.42588124	     -0.87994879	      0.92771134	     -0.57547052	     27.15809105	     -4.21144020	     -8.20532144	    -43.34293427	      8.30425390	      1.92035497	      0.03997083	      0.02328091	    -13.60475559	    -18.50792826	     19.14925743	     -3.31498249	    -15.39476932	     -2.91298068	     -9.05787279
      1.37000000	     -1.67545937	     -1.42058310	     -2.82499211	     -0.87654729	      0.92738130	     -0.57412707	     27.32706233	     -3.77432924	     -8.39868488	    -41.32088078	      8.36842802	      2.13059306	     -0.21644755	     -0.27102390	    -13.98848112	    -18.46861086	     19.40738014	     -3.19623586	    -15.41550539	     -2.65946955	     -9.09793085
      1.38000000	     -1.73933674	     -1.65501482	     -3.23389529	     -0.87300024	      0.92697636	     -0.57266999	     27.46725498	     -3.30189083	     -8.53948069	    -39.19352907	      8.33412155	      2.35416658	     -0.48795759	     -0.56111378	    -14.38927465	    -18.41885210	     19.67060340	     -3.08360758	    -15.42316974	     -2.41778877	     -9.13608469
      1.39000000	     -1.81359504	     -1.87655848	     -3.64953294	     -0.86931806	      0.92647562	     -0.57110340	     27.59524423	     -2.80549752	     -8.62855223	    -37.00458084	      8.20122512	      2.58869037	     -0.76365925	     -0.84235629	    -14.80629627	    -18.37057010	     19.93864754	     -2.98134636	    -15.41319419	     -2.19461820	     -9.17769575
      1.40000000	     -1.89935043	     -2.08111025	     -4.06458556	     -0.86552070	      0.92587082	     -0.56942247	     27.72040929	     -2.29512629	     -8.66940140	    -34.78804765	      7.97329805	      2.83514178	     -1.03813528	     -1.11293106	    -15.23203885	    -18.32591202	     20.21044313	     -2.88595018	    -15.38620688	     -1.99516739	     -9.23170750
      1.41000000	     -1.99148213	     -2.26719489	     -4.47245456	     -0.86161199	      0.92516854	     -0.56764444	     27.84124673	     -1.77997027	     -8.66769743	    -32.57086374	      7.66490668	      3.10236031	     -1.31256265	     -1.37097558	    -15.65674841	    -18.29042750	     20.48574902	     -2.78681478	    -15.34978372	     -1.81830921	     -9.30274369
      1.42000000	     -2.08368726	     -2.43310943	     -4.86543036	     -0.85757350	      0.92438455	     -0.56578970	     27.94788480	     -1.26875321	     -8.62522187	    -30.36882486	      7.31241924	      3.42235943	     -1.59814169	     -1.60944578	    -16.05438831	    -18.25396461	     20.74987957	     -2.65689080	    -15.30833299	     -1.66135335	     -9.39926992
      1.43000000	     -2.24224854	     -2.57312079	     -5.25398483	     -0.85345662	      0.92339356	     -0.56382437	     28.13608573	     -0.76307932	     -8.53983795	    -28.22866966	      6.88889283	      3.60029840	     -1.79467793	     -1.84382877	    -16.48329996	    -18.26692974	     21.02811369	     -2.60607453	    -15.18460280	     -1.52886625	     -9.50584120
      1.44000000	     -2.38416399	     -2.70430523	     -5.61021072	     -0.84922210	      0.92235735	     -0.56179252	     28.28576827	     -0.26420559	     -8.41996085	    -26.12408368	      6.46203010	      3.83753047	     -2.00946953	     -2.07520059	    -16.87239880	    -18.29277735	     21.32009897	     -2.50556064	    -15.08147128	     -1.40524085	     -9.64238218
      1.45000000	     -2.54574622	     -2.81264366	     -5.93841030	     -0.84487604	      0.92121005	     -0.55969855	     28.44871129	      0.21117227	     -8.25662353	    -24.08591800	      6.04498743	      4.06631039	     -2.19739445	     -2.29145141	    -17.22061343	    -18.33815229	     21.60817831	     -2.38237280	    -14.95253914	     -1.29904747	     -9.80181356
      1.46000000	     -2.71755870	     -2.90658983	     -6.22851482	     -0.84042025	      0.91996934	     -0.55755844	     28.60954960	      0.66144925	     -8.05410721	    -22.11967118	      5.65689427	      4.30165737	     -2.36244447	     -2.50461413	    -17.53094933	    -18.41313085	     21.90668750	     -2.22446086	    -14.81154955	     -1.20179097	     -9.98763190
      1.47000000	     -2.89748430	     -2.98272190	     -6.47713679	     -0.83584382	      0.91863802	     -0.55541033	     28.76862865	      1.07050718	     -7.82256523	    -20.24711509	      5.32017266	      4.53452445	     -2.50402875	     -2.70830151	    -17.78776776	    -18.52103367	     22.20892237	     -2.03493544	    -14.66086592	     -1.10648269	    -10.20116274
      1.48000000	     -3.08031137	     -3.04320757	     -6.67457492	     -0.83113974	      0.91722622	     -0.55324935	     28.92815263	      1.42997475	     -7.59704684	    -18.50044879	      5.04397417	      4.74962230	     -2.62982796	     -2.90704532	    -17.99520463	    -18.65496791	     22.51511203	     -1.82163060	    -14.50687209	     -1.01804547	    -10.44902590
      1.49000000	     -3.25652244	     -3.09048103	     -6.81786873	     -0.82628913	      0.91574663	     -0.55111955	     29.08104617	      1.73195617	     -7.39761081	    -16.90554810	      4.83544380	      4.92664170	     -2.74591075	     -3.09835804	    -18.13107745	    -18.82555047	     22.81906725	     -1.59219240	    -14.35959415	     -0.92428467	    -10.72975724
      1.50000000	     -3.41967803	     -3.12847457	     -6.90564725	     -0.82126627	      0.91421162	     -0.54903140	     29.22955255	      1.97499539	     -7.26186131	    -15.50199931	      4.68960792	      5.03953022	     -2.86366033	     -3.28354633	    -18.19292921	    -19.02556800	     23.11963417	     -1.36572104	    -14.22238270	     -0.81907495	    -11.04732834
      1.51000000	     -3.55788972	     -3.16551581	     -6.93917221	     -0.81605626	      0.91264279	     -0.54697606	     29.37166203	      2.16440561	     -7.24544444	    -14.33089731	      4.59357292	      5.08740103	     -2.99535270	     -3.47238364	    -18.18233365	    -19.26145287	     23.41585519	     -1.13518639	    -14.10948142	     -0.69834412	    -11.39049607
      1.52000000	     -3.66623930	     -3.19397485	     -6.92472434	     -0.81066254	      0.91104511	     -0.54495295	     29.51224286	      2.29546608	     -7.36381391	    -13.42765529	      4.55604492	      5.07217533	     -3.14313347	     -3.65214141	    -18.08302271	    -19.53643384	     23.70464321	     -0.93671872	    -14.02705747	     -0.57280677	    -11.73123747
      1.53000000	     -3.74047198	     -3.24001686	     -6.86678172	     -0.80499380	      0.90943478	     -0.54297618	     29.66106861	      2.38805918	     -7.71978711	    -12.84961934	      4.53856548	      4.98809162	     -3.34394376	     -3.85248637	    -17.96612984	    -19.80897023	     23.97148996	     -0.68197975	    -13.96552131	     -0.40079017	    -12.11961591
      1.54000000	     -3.77957831	     -3.26821119	     -6.78289911	     -0.79913753	      0.90780825	     -0.54099838	     29.81510168	      2.42548578	     -8.23229742	    -12.58421977	      4.58536326	      4.88408418	     -3.57439151	     -4.03106535	    -17.78232273	    -20.10853786	     24.23730075	     -0.48375114	    -13.93774753	     -0.24324032	    -12.46528387
      1.55000000	     -3.79359898	     -3.30415516	     -6.66623325	     -0.79301919	      0.90617729	     -0.53902775	     29.96726666	      2.42994113	     -8.93412367	    -12.61623128	      4.62653131	      4.66649160	     -3.85064109	     -4.22024090	    -17.58021859	    -20.39780617	     24.44630447	     -0.20720011	    -13.91732843	     -0.05843457	    -12.83075794
